<svg version="1.1" id="Layer_1" xmlns="http://www.w3.org/2000/svg" xmlns:xlink="http://www.w3.org/1999/xlink" x="300px" y="120px"
	 width="100%" viewBox="0 50 260 150" xml:space="preserve">

<path fill="#BDEAFC" opacity="1.000000" stroke="none"
	d="
M61.000900,204.003479
	C55.836212,204.003479 51.153328,203.747894 46.511368,204.074341
	C41.747082,204.409363 39.848454,201.917404 39.192215,197.804932
	C38.984138,196.500992 39.060585,195.146622 39.060345,193.815323
	C39.054398,160.994293 39.050579,128.173264 39.058937,95.352242
	C39.061241,86.305740 40.345867,85.056824 49.515354,85.056145
	C70.507484,85.054604 91.499809,85.107399 112.491631,85.026917
	C119.559837,84.999817 125.994751,86.494843 131.414124,91.771042
	C137.813004,86.031754 145.482910,84.938805 153.657700,85.002716
	C174.148758,85.162910 194.641937,85.041656 215.134232,85.062675
	C223.301071,85.071045 224.004486,85.797638 224.004852,93.801956
	C224.005981,118.625977 224.007278,143.449997 224.000168,168.274017
	C223.999741,169.771667 224.423981,171.562180 223.759125,172.691605
	C222.957214,174.053818 221.271729,175.533386 219.837570,175.680084
	C218.731171,175.793259 216.938110,174.157944 216.334579,172.881836
	C215.678818,171.495331 215.977142,169.625275 215.976685,167.966034
	C215.970566,145.474472 215.988937,122.982903 215.991577,100.491341
	C215.992355,93.957344 215.978333,93.947746 209.250809,93.946205
	C189.091705,93.941589 168.932587,93.936592 148.773483,93.949623
	C140.286743,93.955109 135.999512,98.191315 135.988861,106.704483
	C135.957397,131.861664 135.977448,157.018936 135.976120,182.176163
	C135.975998,184.341980 136.479828,186.686462 135.806625,188.619598
	C135.220886,190.301575 133.300644,191.518814 131.970139,192.941422
	C130.640198,191.519012 128.347992,190.210754 128.163147,188.652512
	C127.636818,184.216049 127.964882,179.677673 127.964539,175.179413
	C127.962868,153.187668 128.003815,131.195740 127.913582,109.204369
	C127.902145,106.417709 127.558571,103.526871 126.749184,100.873322
	C125.480072,96.712563 122.550514,94.013733 117.973022,93.999863
	C95.814926,93.932693 73.656204,94.019051 51.498577,93.894684
	C47.438747,93.871887 47.977272,96.403984 47.977234,98.885605
	C47.976868,124.376045 47.976841,149.866486 47.976822,175.356934
	C47.976818,180.521667 48.168705,185.695786 47.915607,190.848083
	C47.720650,194.816925 49.261391,196.051285 53.142178,196.027313
	C74.633293,195.894577 96.127876,195.805618 117.615730,196.102341
	C121.892548,196.161392 126.143738,198.734070 130.409576,198.742630
	C134.584396,198.751022 138.741028,196.229233 142.943756,196.104813
	C155.761063,195.725311 168.596985,196.009384 181.425064,195.934265
	C184.536758,195.916046 187.562729,196.300430 187.517868,200.036652
	C187.473007,203.773087 184.414536,204.033279 181.323914,204.012955
	C169.162399,203.933044 156.998383,204.112656 144.838593,203.949905
	C139.701950,203.881149 136.703415,205.665634 135.803986,211.008545
	C135.573441,212.378082 133.626434,214.302856 132.332901,214.415039
	C131.003174,214.530380 128.458084,212.923370 128.255707,211.756119
	C126.919868,204.050705 121.563316,203.859970 115.478104,203.918762
	C97.487030,204.092560 79.493340,203.994873 61.000900,204.003479
z"/>
<path fill="#BCEAFC" opacity="1.000000" stroke="none"
	d="
M25.996065,106.277542
	C26.088604,104.490646 25.748772,102.885712 26.382235,101.917679
	C27.187611,100.686943 28.915133,99.089752 30.002642,99.254158
	C31.425562,99.469284 33.012672,101.033150 33.775421,102.428764
	C34.413673,103.596611 33.999241,105.356270 33.999523,106.853874
	C34.005444,138.171204 33.999077,169.488525 34.007847,200.805862
	C34.009819,207.836075 34.242405,208.053848 41.364830,208.055359
	C65.519150,208.060486 89.673637,208.105133 113.827652,208.019272
	C118.886681,208.001297 122.570610,208.754227 124.131981,214.761047
	C124.711983,216.992386 128.811600,219.242935 131.609604,219.725525
	C135.051056,220.319077 138.880905,218.612045 139.594498,214.518188
	C140.572159,208.909348 143.911682,207.851868 148.864182,207.959106
	C159.020889,208.179047 169.185699,208.024490 179.347168,208.025818
	C180.513184,208.025970 181.957550,207.601822 182.787857,208.132812
	C184.570786,209.272995 186.037109,210.908279 187.633057,212.340851
	C185.947464,213.571259 184.295441,215.808884 182.570786,215.866318
	C172.420563,216.204391 162.249939,215.901703 152.095245,216.164658
	C150.375763,216.209183 147.984009,217.523911 147.117798,218.976379
	C140.236084,230.515564 125.694923,231.770767 117.837425,220.997574
	C115.556412,217.870148 113.258636,216.853287 109.587479,216.876556
	C86.933243,217.020126 64.277733,216.971207 41.622650,216.969193
	C30.609856,216.968216 25.997093,212.296585 25.996571,201.194046
	C25.995085,169.710175 25.996042,138.226288 25.996065,106.277542
z"/>

<path fill="#8ACCBB" opacity="1.000000" stroke="none"
	d="
M212.312836,220.274094
	C206.306702,226.066086 204.176163,225.556595 200.961334,218.308899
	C194.289764,203.267990 187.401489,188.322662 180.820526,173.242798
	C180.028732,171.428421 179.752625,167.837769 180.709808,167.164948
	C182.251068,166.081543 185.348892,165.980164 187.216690,166.787781
	C202.773575,173.514633 218.226639,180.484833 233.650925,187.513519
	C239.704132,190.271896 239.989868,192.325882 235.443680,196.996948
	C231.004974,201.557602 231.004959,201.557587 235.633011,206.193741
	C244.316620,214.892548 244.316620,214.892548 235.442184,223.718643
	C229.643066,229.486191 228.343933,229.478760 222.479797,223.639740
	C221.300339,222.465347 220.010239,221.379135 218.972427,220.090195
	C216.812302,217.407349 214.747604,217.134613 212.312836,220.274094
M196.097397,179.553711
	C194.942291,179.111023 193.787186,178.668320 191.695892,177.866837
	C197.251984,190.175552 202.387299,201.552078 207.725800,213.378738
	C209.243240,211.955719 210.210892,211.094223 211.127167,210.181168
	C215.478348,205.845474 216.183090,205.684967 220.394730,210.010147
	C223.145340,212.834885 225.397903,216.144577 227.873550,219.237045
	C232.201416,216.139359 232.499283,214.363602 229.834900,212.081314
	C227.818283,210.353928 226.069290,208.317276 224.160675,206.459900
	C220.854187,203.242203 220.098495,200.154236 224.267471,196.958313
	C225.210800,196.235138 225.707535,194.929398 226.775482,193.351639
	C216.410278,188.700912 206.582382,184.291275 196.097397,179.553711
z"/>

<path fill="#BFEBFC" opacity="1.000000" stroke="none"
	d="
M236.980560,138.000000
	C236.980316,150.640442 236.972534,162.780899 236.984940,174.921326
	C236.988251,178.156418 237.231674,181.778702 232.717438,181.914001
	C228.203552,182.049347 228.080505,178.407730 228.074493,175.191879
	C228.031265,152.075226 228.051727,128.958466 228.052902,105.841728
	C228.052933,105.342865 228.004883,104.835007 228.079361,104.346619
	C228.498413,101.599251 229.116135,98.879234 232.712326,99.039612
	C236.155518,99.193146 236.995224,101.565483 236.987854,104.571182
	C236.960892,115.547394 236.979279,126.523720 236.980560,138.000000
z"/>

<path fill="#589EAB" opacity="1.000000" stroke="none"
	d="
M112.157104,161.549545
	C112.822632,165.606506 111.022125,167.045044 107.490631,167.044052
	C94.355949,167.040344 81.221252,167.096191 68.086555,167.131668
	C65.206429,167.139435 62.373398,166.535980 62.305176,163.121475
	C62.236614,159.689926 64.971863,158.983932 67.917473,158.988800
	C80.887123,159.010254 93.857971,158.917572 106.825172,159.097717
	C108.565041,159.121887 110.286598,160.464264 112.157104,161.549545
z"/>
<path fill="#88CBB9" opacity="1.000000" stroke="none"
	d="
M77.018723,152.000839
	C73.189507,151.988205 69.771080,152.411346 66.559525,151.780777
	C64.931206,151.461090 63.676163,149.240234 62.252365,147.878891
	C63.700745,146.592682 65.126465,144.220032 66.601021,144.189301
	C80.427521,143.900879 94.265381,143.881393 108.090561,144.196472
	C109.614365,144.231201 111.079391,146.845016 112.571678,148.262650
	C110.885574,149.506607 109.234642,151.767075 107.507561,151.826843
	C97.520012,152.172394 87.514488,151.998734 77.018723,152.000839
z"/>
<path fill="#8BCDBC" opacity="1.000000" stroke="none"
	d="
M101.887115,174.081345
	C104.031158,174.083588 105.920700,173.582764 107.300194,174.207764
	C109.287132,175.107941 110.903351,176.826370 112.677788,178.195602
	C110.909195,179.497864 109.182945,181.852737 107.364906,181.925873
	C97.908607,182.306244 88.428925,182.106094 78.957390,182.106491
	C75.135544,182.106659 71.313240,182.065598 67.492012,182.113068
	C64.664238,182.148178 61.931656,181.147339 62.432961,178.191620
	C62.705658,176.583771 65.689880,174.330215 67.512474,174.271454
	C78.800201,173.907501 90.105370,174.084122 101.887115,174.081345
z"/>
<path fill="#5CA1AD" opacity="1.000000" stroke="none"
	d="
M94.785721,128.606201
	C97.238029,128.676559 99.422035,128.257050 101.145630,128.962494
	C102.678810,129.589996 104.683388,131.468857 104.676857,132.786484
	C104.670189,134.132431 102.512695,136.576889 101.220680,136.628326
	C92.458855,136.977112 83.670517,136.984222 74.908386,136.645477
	C73.618462,136.595612 72.421928,134.129745 71.182190,132.781723
	C72.766731,131.413071 74.265717,129.001343 75.951187,128.863083
	C82.039238,128.363663 88.190033,128.629059 94.785721,128.606201
z"/>
<path fill="#DBF5FF" opacity="1.000000" stroke="none"
	d="
M178.991135,71.946014
	C174.025238,69.247322 173.760529,66.407257 178.156494,63.568180
	C183.429245,60.162849 188.761780,56.765244 194.404755,54.067898
	C196.173981,53.222214 199.904739,53.832405 201.198547,55.215710
	C203.565628,57.746529 200.904358,59.567715 198.669647,60.859695
	C192.247253,64.572769 185.806274,68.253685 178.991135,71.946014
z"/>
<path fill="#DBF5FF" opacity="1.000000" stroke="none"
	d="
M68.810211,53.904816
	C74.731888,57.350636 80.288635,60.655064 85.868492,63.920002
	C88.292175,65.338181 89.807732,66.940331 88.042786,69.931328
	C86.211960,73.033951 83.882980,72.084251 81.638817,70.794441
	C76.177574,67.655647 70.842300,64.296074 65.356667,61.202042
	C62.669804,59.686588 60.894535,57.485008 62.509575,54.848309
	C63.213676,53.698788 66.397179,54.067951 68.810211,53.904816
z"/>
<path fill="#DBF5FF" opacity="1.000000" stroke="none"
	d="
M131.839294,45.981525
	C130.280136,44.536079 128.232941,43.126919 128.153534,41.614437
	C127.796211,34.809391 127.753235,27.960196 128.165970,21.161463
	C128.271347,19.425829 130.458130,17.816551 131.688614,16.149218
	C133.113297,17.747894 135.654053,19.271397 135.767685,20.958384
	C136.236404,27.916958 136.170792,34.935745 135.803757,41.906189
	C135.729355,43.319202 133.495544,44.618511 131.839294,45.981525
z"/>
<path fill="#DBF5FF" opacity="1.000000" stroke="none"
	d="
M167.857483,42.705551
	C166.192612,45.004810 164.886002,47.117001 163.315857,49.010685
	C161.537399,51.155632 159.004623,53.117146 156.711533,50.541828
	C155.622040,49.318222 155.870148,46.039783 156.676437,44.203320
	C157.765884,41.721920 159.697067,39.401424 161.792725,37.635784
	C163.500931,36.196594 166.721054,34.321522 167.974792,35.007683
	C171.232040,36.790352 170.592773,39.869114 167.857483,42.705551
z"/>
<path fill="#DBF5FF" opacity="1.000000" stroke="none"
	d="
M104.349274,51.597366
	C100.784546,47.811253 97.279297,44.336411 94.524544,40.343754
	C93.795097,39.286526 95.376053,36.635227 95.896149,34.715866
	C97.449692,35.160694 99.498947,35.133347 100.460114,36.142422
	C102.945793,38.751987 105.182076,41.675900 107.082901,44.743828
	C108.927490,47.720982 108.573898,50.452320 104.349274,51.597366
z"/>

</svg>