<svg version="1.1" id="Layer_1" xmlns="http://www.w3.org/2000/svg" xmlns:xlink="http://www.w3.org/1999/xlink" x="300px" y="120px"
	 width="100px" height="38px" viewBox="0 20 600 200" enable-background="new 0 0 600 300" xml:space="preserve">

<path fill="#BDEAFC" opacity="1.000000" stroke="none" 
	d="
M61.000900,204.003479 
	C55.836212,204.003479 51.153328,203.747894 46.511368,204.074341 
	C41.747082,204.409363 39.848454,201.917404 39.192215,197.804932 
	C38.984138,196.500992 39.060585,195.146622 39.060345,193.815323 
	C39.054398,160.994293 39.050579,128.173264 39.058937,95.352242 
	C39.061241,86.305740 40.345867,85.056824 49.515354,85.056145 
	C70.507484,85.054604 91.499809,85.107399 112.491631,85.026917 
	C119.559837,84.999817 125.994751,86.494843 131.414124,91.771042 
	C137.813004,86.031754 145.482910,84.938805 153.657700,85.002716 
	C174.148758,85.162910 194.641937,85.041656 215.134232,85.062675 
	C223.301071,85.071045 224.004486,85.797638 224.004852,93.801956 
	C224.005981,118.625977 224.007278,143.449997 224.000168,168.274017 
	C223.999741,169.771667 224.423981,171.562180 223.759125,172.691605 
	C222.957214,174.053818 221.271729,175.533386 219.837570,175.680084 
	C218.731171,175.793259 216.938110,174.157944 216.334579,172.881836 
	C215.678818,171.495331 215.977142,169.625275 215.976685,167.966034 
	C215.970566,145.474472 215.988937,122.982903 215.991577,100.491341 
	C215.992355,93.957344 215.978333,93.947746 209.250809,93.946205 
	C189.091705,93.941589 168.932587,93.936592 148.773483,93.949623 
	C140.286743,93.955109 135.999512,98.191315 135.988861,106.704483 
	C135.957397,131.861664 135.977448,157.018936 135.976120,182.176163 
	C135.975998,184.341980 136.479828,186.686462 135.806625,188.619598 
	C135.220886,190.301575 133.300644,191.518814 131.970139,192.941422 
	C130.640198,191.519012 128.347992,190.210754 128.163147,188.652512 
	C127.636818,184.216049 127.964882,179.677673 127.964539,175.179413 
	C127.962868,153.187668 128.003815,131.195740 127.913582,109.204369 
	C127.902145,106.417709 127.558571,103.526871 126.749184,100.873322 
	C125.480072,96.712563 122.550514,94.013733 117.973022,93.999863 
	C95.814926,93.932693 73.656204,94.019051 51.498577,93.894684 
	C47.438747,93.871887 47.977272,96.403984 47.977234,98.885605 
	C47.976868,124.376045 47.976841,149.866486 47.976822,175.356934 
	C47.976818,180.521667 48.168705,185.695786 47.915607,190.848083 
	C47.720650,194.816925 49.261391,196.051285 53.142178,196.027313 
	C74.633293,195.894577 96.127876,195.805618 117.615730,196.102341 
	C121.892548,196.161392 126.143738,198.734070 130.409576,198.742630 
	C134.584396,198.751022 138.741028,196.229233 142.943756,196.104813 
	C155.761063,195.725311 168.596985,196.009384 181.425064,195.934265 
	C184.536758,195.916046 187.562729,196.300430 187.517868,200.036652 
	C187.473007,203.773087 184.414536,204.033279 181.323914,204.012955 
	C169.162399,203.933044 156.998383,204.112656 144.838593,203.949905 
	C139.701950,203.881149 136.703415,205.665634 135.803986,211.008545 
	C135.573441,212.378082 133.626434,214.302856 132.332901,214.415039 
	C131.003174,214.530380 128.458084,212.923370 128.255707,211.756119 
	C126.919868,204.050705 121.563316,203.859970 115.478104,203.918762 
	C97.487030,204.092560 79.493340,203.994873 61.000900,204.003479 
z"/>
<path fill="#8ACCBB" opacity="1.000000" stroke="none" 
	d="
M284.269348,179.693344 
	C273.878204,179.815750 263.906982,179.815750 253.557922,179.815750 
	C253.557922,154.026932 253.557922,128.452713 253.557922,101.514252 
	C264.067810,102.071655 274.947327,101.095467 284.984741,103.555290 
	C299.051056,107.002457 302.721466,125.199600 292.594818,135.823074 
	C292.144653,136.295319 291.738953,136.809921 291.143036,137.501541 
	C300.519257,143.501480 303.454468,152.142532 301.464172,162.586517 
	C299.689789,171.897461 293.915588,177.498825 284.269348,179.693344 
M266.019989,159.467224 
	C266.019989,162.546738 266.019989,165.626251 266.019989,169.213638 
	C273.600555,168.338882 281.788361,171.244522 285.754395,163.682571 
	C287.567932,160.224670 287.405579,153.773636 285.273529,150.613602 
	C280.934082,144.181870 273.259735,146.135071 266.020050,146.175095 
	C266.020050,150.578445 266.020050,154.531464 266.019989,159.467224 
M276.222382,133.060333 
	C282.363770,130.851791 284.764313,125.894279 282.723297,119.635086 
	C281.158478,114.836433 273.403046,112.669365 266.325714,115.029037 
	C266.325714,121.146149 266.325714,127.245148 266.325714,134.092331 
	C269.597290,133.760956 272.497620,133.467178 276.222382,133.060333 
z"/>
<path fill="#BCEAFC" opacity="1.000000" stroke="none" 
	d="
M25.996065,106.277542 
	C26.088604,104.490646 25.748772,102.885712 26.382235,101.917679 
	C27.187611,100.686943 28.915133,99.089752 30.002642,99.254158 
	C31.425562,99.469284 33.012672,101.033150 33.775421,102.428764 
	C34.413673,103.596611 33.999241,105.356270 33.999523,106.853874 
	C34.005444,138.171204 33.999077,169.488525 34.007847,200.805862 
	C34.009819,207.836075 34.242405,208.053848 41.364830,208.055359 
	C65.519150,208.060486 89.673637,208.105133 113.827652,208.019272 
	C118.886681,208.001297 122.570610,208.754227 124.131981,214.761047 
	C124.711983,216.992386 128.811600,219.242935 131.609604,219.725525 
	C135.051056,220.319077 138.880905,218.612045 139.594498,214.518188 
	C140.572159,208.909348 143.911682,207.851868 148.864182,207.959106 
	C159.020889,208.179047 169.185699,208.024490 179.347168,208.025818 
	C180.513184,208.025970 181.957550,207.601822 182.787857,208.132812 
	C184.570786,209.272995 186.037109,210.908279 187.633057,212.340851 
	C185.947464,213.571259 184.295441,215.808884 182.570786,215.866318 
	C172.420563,216.204391 162.249939,215.901703 152.095245,216.164658 
	C150.375763,216.209183 147.984009,217.523911 147.117798,218.976379 
	C140.236084,230.515564 125.694923,231.770767 117.837425,220.997574 
	C115.556412,217.870148 113.258636,216.853287 109.587479,216.876556 
	C86.933243,217.020126 64.277733,216.971207 41.622650,216.969193 
	C30.609856,216.968216 25.997093,212.296585 25.996571,201.194046 
	C25.995085,169.710175 25.996042,138.226288 25.996065,106.277542 
z"/>
<path fill="#8ACCBB" opacity="1.000000" stroke="none" 
	d="
M418.890503,161.000000 
	C418.881287,170.160324 419.019165,178.824020 418.821289,187.480026 
	C418.626801,195.988144 414.674286,200.894608 407.090515,202.687912 
	C403.108795,203.629440 399.843628,203.408112 399.254150,198.251602 
	C399.087494,196.793610 398.515594,195.381927 398.141754,193.994263 
	C405.993713,189.238403 406.754486,187.796021 405.389252,180.353333 
	C402.476990,180.570831 399.556824,180.962692 396.634857,180.976608 
	C384.908691,181.032501 377.731049,175.399368 376.517975,163.956802 
	C375.680542,156.057434 375.701263,147.932816 376.502625,140.026855 
	C377.583160,129.366272 385.549805,122.874260 396.412384,123.062477 
	C403.616730,123.187302 410.809692,123.971115 418.890594,124.519882 
	C418.890594,136.355301 418.890594,148.427643 418.890503,161.000000 
M405.976013,143.955917 
	C404.948242,137.403702 402.739532,135.049576 397.436951,135.135315 
	C392.865570,135.209244 389.551697,137.426147 389.256378,142.091537 
	C388.848938,148.528763 388.820007,155.034103 389.265991,161.466080 
	C389.575348,165.927460 392.613953,168.744705 397.230042,168.810822 
	C401.526855,168.872391 404.703613,166.732681 405.119415,162.187927 
	C405.645660,156.436005 405.714966,150.642288 405.976013,143.955917 
z"/>
<path fill="#8ACCBB" opacity="1.000000" stroke="none" 
	d="
M480.332062,166.127792 
	C477.294891,173.855438 472.077240,178.480286 464.261047,180.091537 
	C456.969696,181.594589 449.755890,181.749985 442.681396,179.017242 
	C434.506317,175.859360 429.766174,169.788132 428.338043,160.009171 
	C432.310272,159.375412 436.299164,158.585663 440.326172,158.239258 
	C441.042633,158.177628 442.172607,159.836563 442.678314,160.905930 
	C446.333130,168.634628 456.422821,171.315002 463.321747,166.306732 
	C469.576050,161.766418 468.456146,151.663361 460.892151,147.027420 
	C456.944000,144.607620 452.477142,143.051376 448.378082,140.855759 
	C444.156525,138.594513 439.560028,136.626358 436.071442,133.482605 
	C426.931885,125.246437 428.137695,111.844528 438.593506,105.406967 
	C449.155975,98.903725 460.323212,99.753296 472.141907,103.995689 
	C470.819672,108.183975 469.645386,111.903580 468.341766,116.032860 
	C465.099976,115.225372 462.156128,114.114273 459.136841,113.842880 
	C455.911072,113.552925 452.400879,113.421677 449.419769,114.424667 
	C447.271423,115.147446 444.594879,117.693497 444.345551,119.698784 
	C444.103546,121.645157 446.154785,124.786911 448.075104,125.923859 
	C454.217896,129.560760 460.819489,132.412018 467.146362,135.751495 
	C475.105103,139.952347 480.625488,146.166580 481.419159,155.457748 
	C481.708160,158.840790 480.823853,162.324066 480.332062,166.127792 
z"/>
<path fill="#8ACCBB" opacity="1.000000" stroke="none" 
	d="
M531.179932,145.134949 
	C531.220520,133.621857 534.909424,127.278145 543.056213,124.232178 
	C551.939941,120.910690 562.216797,122.699440 567.485657,129.072525 
	C569.511475,131.522934 571.330017,134.831421 571.610046,137.898010 
	C572.225708,144.640717 571.801086,151.478409 571.801086,158.856247 
	C562.610779,158.856247 553.706726,158.856247 544.940552,158.856247 
	C543.148987,167.164215 546.993530,171.167709 554.355469,169.142181 
	C557.687012,168.225555 560.870361,166.770554 564.657349,165.359985 
	C566.125183,168.736694 567.613159,172.159744 569.285767,176.007523 
	C559.771118,181.157959 550.226624,182.978088 540.302185,179.375366 
	C533.738342,176.992569 531.355835,171.251358 531.213257,164.610367 
	C531.077454,158.281128 531.181213,151.946732 531.179932,145.134949 
M545.028259,147.752960 
	C549.614502,147.752960 554.200684,147.752960 559.050903,147.752960 
	C559.050903,145.382858 559.635864,143.274902 558.916016,141.806839 
	C557.791504,139.513718 556.103271,136.470123 554.065735,135.918915 
	C551.671204,135.271164 547.465454,136.082047 546.189636,137.827667 
	C544.499451,140.140335 544.886658,143.971283 545.028259,147.752960 
z"/>
<path fill="#8BCDBB" opacity="1.000000" stroke="none" 
	d="
M350.181641,181.006714 
	C338.735931,180.294342 331.504669,173.097870 331.071045,162.097015 
	C330.822021,155.779694 330.905670,149.444229 331.002594,143.119431 
	C331.178894,131.614410 337.562286,124.031837 347.748047,123.042458 
	C361.587769,121.698151 370.639801,127.267746 372.329651,139.653580 
	C373.441437,147.802582 373.168640,156.297455 372.324860,164.515137 
	C371.350800,174.001572 363.773529,182.247223 350.181641,181.006714 
M344.355103,164.507629 
	C347.003448,168.556488 350.641083,169.610703 355.151306,168.110779 
	C359.458588,166.678360 360.151123,163.246613 360.117218,159.346741 
	C360.070923,154.022217 360.198334,148.693771 360.040466,143.373260 
	C359.880615,137.987366 357.036896,135.189041 352.056702,135.150070 
	C347.115906,135.111435 344.009735,137.976715 343.905853,143.250641 
	C343.771576,150.064438 343.998596,156.885376 344.355103,164.507629 
z"/>
<path fill="#8ACCBB" opacity="1.000000" stroke="none" 
	d="
M212.312836,220.274094 
	C206.306702,226.066086 204.176163,225.556595 200.961334,218.308899 
	C194.289764,203.267990 187.401489,188.322662 180.820526,173.242798 
	C180.028732,171.428421 179.752625,167.837769 180.709808,167.164948 
	C182.251068,166.081543 185.348892,165.980164 187.216690,166.787781 
	C202.773575,173.514633 218.226639,180.484833 233.650925,187.513519 
	C239.704132,190.271896 239.989868,192.325882 235.443680,196.996948 
	C231.004974,201.557602 231.004959,201.557587 235.633011,206.193741 
	C244.316620,214.892548 244.316620,214.892548 235.442184,223.718643 
	C229.643066,229.486191 228.343933,229.478760 222.479797,223.639740 
	C221.300339,222.465347 220.010239,221.379135 218.972427,220.090195 
	C216.812302,217.407349 214.747604,217.134613 212.312836,220.274094 
M196.097397,179.553711 
	C194.942291,179.111023 193.787186,178.668320 191.695892,177.866837 
	C197.251984,190.175552 202.387299,201.552078 207.725800,213.378738 
	C209.243240,211.955719 210.210892,211.094223 211.127167,210.181168 
	C215.478348,205.845474 216.183090,205.684967 220.394730,210.010147 
	C223.145340,212.834885 225.397903,216.144577 227.873550,219.237045 
	C232.201416,216.139359 232.499283,214.363602 229.834900,212.081314 
	C227.818283,210.353928 226.069290,208.317276 224.160675,206.459900 
	C220.854187,203.242203 220.098495,200.154236 224.267471,196.958313 
	C225.210800,196.235138 225.707535,194.929398 226.775482,193.351639 
	C216.410278,188.700912 206.582382,184.291275 196.097397,179.553711 
z"/>
<path fill="#8BCDBB" opacity="1.000000" stroke="none" 
	d="
M508.239136,163.644119 
	C508.237671,143.069260 508.237671,122.955986 508.237671,102.418190 
	C512.810791,102.418190 516.993164,102.418190 521.728638,102.418190 
	C521.728638,109.440231 521.728638,116.351410 521.728638,123.656326 
	C525.305176,123.881264 528.375732,124.074371 531.415649,124.265564 
	C531.500732,132.861450 530.340393,134.290985 521.935669,135.589447 
	C521.935669,145.908951 521.629822,156.345779 522.204285,166.733932 
	C522.313782,168.713394 525.901489,170.500504 527.884399,172.376358 
	C528.518311,172.330795 529.152222,172.285233 529.786072,172.239685 
	C528.067078,175.137817 526.993958,179.008667 524.465454,180.687668 
	C521.309753,182.783142 513.150513,179.071060 511.237030,175.018143 
	C509.650635,171.658081 509.196411,167.763489 508.239136,163.644119 
z"/>
<path fill="#88CBB9" opacity="1.000000" stroke="none" 
	d="
M307.908508,106.183105 
	C307.720795,103.423080 308.160828,101.802551 311.052948,101.970955 
	C313.837463,102.133095 316.638763,102.006027 319.803223,102.006027 
	C319.803223,128.107468 319.803223,153.751450 319.803223,179.698730 
	C315.998688,179.698730 312.403717,179.698730 307.907990,179.698730 
	C307.907990,155.361572 307.907990,131.011124 307.908508,106.183105 
z"/>
<path fill="#BFEBFC" opacity="1.000000" stroke="none" 
	d="
M236.980560,138.000000 
	C236.980316,150.640442 236.972534,162.780899 236.984940,174.921326 
	C236.988251,178.156418 237.231674,181.778702 232.717438,181.914001 
	C228.203552,182.049347 228.080505,178.407730 228.074493,175.191879 
	C228.031265,152.075226 228.051727,128.958466 228.052902,105.841728 
	C228.052933,105.342865 228.004883,104.835007 228.079361,104.346619 
	C228.498413,101.599251 229.116135,98.879234 232.712326,99.039612 
	C236.155518,99.193146 236.995224,101.565483 236.987854,104.571182 
	C236.960892,115.547394 236.979279,126.523720 236.980560,138.000000 
z"/>
<path fill="#88CBB9" opacity="1.000000" stroke="none" 
	d="
M501.092346,163.997375 
	C501.092407,169.442886 501.092407,174.389160 501.092407,179.662598 
	C496.884705,179.662598 493.175201,179.662598 489.141541,179.662598 
	C489.141541,161.242188 489.141541,143.043610 489.141541,124.421173 
	C492.849640,124.421173 496.563507,124.421173 501.092255,124.421173 
	C501.092255,137.414902 501.092255,150.456528 501.092346,163.997375 
z"/>
<path fill="#589EAB" opacity="1.000000" stroke="none" 
	d="
M112.157104,161.549545 
	C112.822632,165.606506 111.022125,167.045044 107.490631,167.044052 
	C94.355949,167.040344 81.221252,167.096191 68.086555,167.131668 
	C65.206429,167.139435 62.373398,166.535980 62.305176,163.121475 
	C62.236614,159.689926 64.971863,158.983932 67.917473,158.988800 
	C80.887123,159.010254 93.857971,158.917572 106.825172,159.097717 
	C108.565041,159.121887 110.286598,160.464264 112.157104,161.549545 
z"/>
<path fill="#88CBB9" opacity="1.000000" stroke="none" 
	d="
M77.018723,152.000839 
	C73.189507,151.988205 69.771080,152.411346 66.559525,151.780777 
	C64.931206,151.461090 63.676163,149.240234 62.252365,147.878891 
	C63.700745,146.592682 65.126465,144.220032 66.601021,144.189301 
	C80.427521,143.900879 94.265381,143.881393 108.090561,144.196472 
	C109.614365,144.231201 111.079391,146.845016 112.571678,148.262650 
	C110.885574,149.506607 109.234642,151.767075 107.507561,151.826843 
	C97.520012,152.172394 87.514488,151.998734 77.018723,152.000839 
z"/>
<path fill="#8BCDBC" opacity="1.000000" stroke="none" 
	d="
M101.887115,174.081345 
	C104.031158,174.083588 105.920700,173.582764 107.300194,174.207764 
	C109.287132,175.107941 110.903351,176.826370 112.677788,178.195602 
	C110.909195,179.497864 109.182945,181.852737 107.364906,181.925873 
	C97.908607,182.306244 88.428925,182.106094 78.957390,182.106491 
	C75.135544,182.106659 71.313240,182.065598 67.492012,182.113068 
	C64.664238,182.148178 61.931656,181.147339 62.432961,178.191620 
	C62.705658,176.583771 65.689880,174.330215 67.512474,174.271454 
	C78.800201,173.907501 90.105370,174.084122 101.887115,174.081345 
z"/>
<path fill="#5CA1AD" opacity="1.000000" stroke="none" 
	d="
M94.785721,128.606201 
	C97.238029,128.676559 99.422035,128.257050 101.145630,128.962494 
	C102.678810,129.589996 104.683388,131.468857 104.676857,132.786484 
	C104.670189,134.132431 102.512695,136.576889 101.220680,136.628326 
	C92.458855,136.977112 83.670517,136.984222 74.908386,136.645477 
	C73.618462,136.595612 72.421928,134.129745 71.182190,132.781723 
	C72.766731,131.413071 74.265717,129.001343 75.951187,128.863083 
	C82.039238,128.363663 88.190033,128.629059 94.785721,128.606201 
z"/>
<path fill="#DBF5FF" opacity="1.000000" stroke="none" 
	d="
M178.991135,71.946014 
	C174.025238,69.247322 173.760529,66.407257 178.156494,63.568180 
	C183.429245,60.162849 188.761780,56.765244 194.404755,54.067898 
	C196.173981,53.222214 199.904739,53.832405 201.198547,55.215710 
	C203.565628,57.746529 200.904358,59.567715 198.669647,60.859695 
	C192.247253,64.572769 185.806274,68.253685 178.991135,71.946014 
z"/>
<path fill="#DBF5FF" opacity="1.000000" stroke="none" 
	d="
M68.810211,53.904816 
	C74.731888,57.350636 80.288635,60.655064 85.868492,63.920002 
	C88.292175,65.338181 89.807732,66.940331 88.042786,69.931328 
	C86.211960,73.033951 83.882980,72.084251 81.638817,70.794441 
	C76.177574,67.655647 70.842300,64.296074 65.356667,61.202042 
	C62.669804,59.686588 60.894535,57.485008 62.509575,54.848309 
	C63.213676,53.698788 66.397179,54.067951 68.810211,53.904816 
z"/>
<path fill="#DBF5FF" opacity="1.000000" stroke="none" 
	d="
M131.839294,45.981525 
	C130.280136,44.536079 128.232941,43.126919 128.153534,41.614437 
	C127.796211,34.809391 127.753235,27.960196 128.165970,21.161463 
	C128.271347,19.425829 130.458130,17.816551 131.688614,16.149218 
	C133.113297,17.747894 135.654053,19.271397 135.767685,20.958384 
	C136.236404,27.916958 136.170792,34.935745 135.803757,41.906189 
	C135.729355,43.319202 133.495544,44.618511 131.839294,45.981525 
z"/>
<path fill="#8BCDBC" opacity="1.000000" stroke="none" 
	d="
M501.931702,107.096344 
	C501.717896,111.942444 499.314178,114.152573 494.934448,113.968704 
	C491.108398,113.808075 488.169342,111.341736 488.512543,107.888306 
	C488.752563,105.473190 491.421600,102.162750 493.743652,101.343491 
	C497.762207,99.925652 501.147278,101.908371 501.931702,107.096344 
z"/>
<path fill="#DBF5FF" opacity="1.000000" stroke="none" 
	d="
M167.857483,42.705551 
	C166.192612,45.004810 164.886002,47.117001 163.315857,49.010685 
	C161.537399,51.155632 159.004623,53.117146 156.711533,50.541828 
	C155.622040,49.318222 155.870148,46.039783 156.676437,44.203320 
	C157.765884,41.721920 159.697067,39.401424 161.792725,37.635784 
	C163.500931,36.196594 166.721054,34.321522 167.974792,35.007683 
	C171.232040,36.790352 170.592773,39.869114 167.857483,42.705551 
z"/>
<path fill="#DBF5FF" opacity="1.000000" stroke="none" 
	d="
M104.349274,51.597366 
	C100.784546,47.811253 97.279297,44.336411 94.524544,40.343754 
	C93.795097,39.286526 95.376053,36.635227 95.896149,34.715866 
	C97.449692,35.160694 99.498947,35.133347 100.460114,36.142422 
	C102.945793,38.751987 105.182076,41.675900 107.082901,44.743828 
	C108.927490,47.720982 108.573898,50.452320 104.349274,51.597366 
z"/>
</svg>